<svg  version="1.1" xmlns="http://www.w3.org/2000/svg">
  <symbol id="code-download"  viewBox="0 0 1024 1024" enable-background="new 0 0 512 512">
  	<path d="M542.12461 795.558416C534.94429 804.261066 524.076522 809.808458 511.913442 809.808458 499.750386 809.808458 488.882638 804.261086 481.702316 795.558466L190.422357 504.278506C175.134577 488.990726 175.134577 464.203154 190.422357 448.915374 205.710138 433.627594 230.49771 433.627594 245.78549 448.915374L472.765742 675.895626 472.765742 103.1477C472.765742 81.526326 490.293262 64 511.913442 64 533.533622 64 551.061142 81.52752 551.061142 103.1477L551.061142 675.894432 778.041396 448.914178C793.329176 433.626398 818.11675 433.626398 833.40453 448.914178 848.69231 464.201958 848.69231 488.989532 833.40453 504.277312L542.12461 795.558416ZM960 920.202822C960 941.823002 942.47248 959.350522 920.8523 959.350522L103.1477 959.350524C81.52752 959.350524 64 941.823004 64 920.202824 64 898.582644 81.52752 881.055124 103.1477 881.055124L920.8523 881.055124C942.473674 881.055122 960 898.582644 960 920.202822Z" p-id="2582"></path>
  </symbol>

  <symbol id="code-working" width="512px" height="512px" viewBox="0 0 512 512" enable-background="new 0 0 512 512">
    <g>
      <g>
        <circle cx="184.166" cy="256.166" r="24"/>
        <circle cx="256.166" cy="256.166" r="24"/>
        <circle cx="328.166" cy="256.166" r="24"/>
      </g>
      <g>
        <path d="M168,392c-6.143,0-12.285-2.344-16.971-7.029l-112-112c-9.373-9.373-9.373-24.569,0-33.941l112-112
          c9.373-9.372,24.568-9.372,33.941,0c9.371,9.372,9.371,24.568,0,33.941L89.941,256l95.029,95.029
          c9.371,9.372,9.371,24.568,0,33.941C180.283,389.656,174.143,392,168,392z"/>
        <path d="M344,392c6.143,0,12.285-2.344,16.971-7.029l112-112c9.373-9.373,9.373-24.569,0-33.941l-112-112
          c-9.373-9.372-24.568-9.372-33.941,0c-9.371,9.372-9.371,24.568,0,33.941L422.059,256l-95.029,95.029
          c-9.371,9.372-9.371,24.568,0,33.941C331.717,389.656,337.857,392,344,392z"/>
      </g>
    </g>
  </symbol>

  <symbol id="fullscreen" width="512px" height="512px" viewBox="0 0 512 512" enable-background="new 0 0 512 512">
    <g>
      <path d="M96,124.171c0-6.938,5.232-12.171,12.171-12.171H176V64h-66.829C75.717,64,48,90.717,48,124.171V192h48V124.171z"/>
      <path d="M403.579,64H336v48h67.219c6.938,0,12.781,5.232,12.781,12.171V192h48v-67.829C464,90.717,437.033,64,403.579,64z"/>
      <path d="M416,386.829c0,6.938-5.232,12.171-12.171,12.171H336v49h67.829C437.283,448,464,420.283,464,386.829V320h-48V386.829z"/>
      <path d="M108.171,399C101.232,399,96,393.768,96,386.829V320H48v66.829C48,420.283,75.717,448,109.171,448H176v-49H108.171z"/>
    </g>
  </symbol>

  <symbol id="level" width="512px" height="512px" viewBox="0 0 512 512" enable-background="new 0 0 512 512">
    <g>
      <path d="M127,99.2V80c0-8.8-7.2-16-16-16s-16,7.2-16,16v21.5c-8.5,5.8-14,15.5-14,26.5s5.5,20.7,14,26.5V432c0,8.8,7.2,16,16,16
        s16-7.2,16-16V156.8c10.7-5.2,18-16.1,18-28.8S137.7,104.4,127,99.2z"/>
      <path d="M223,292.9V80c0-8.8-7.2-16-16-16s-16,7.2-16,16v211.7c-10.1,5.4-17,16-17,28.3s6.9,22.9,17,28.3V432c0,8.8,7.2,16,16,16
        s16-7.2,16-16v-84.9c9-5.7,15-15.7,15-27.1S232,298.6,223,292.9z"/>
      <path d="M319,163.3V80c0-8.8-7.2-16-16-16s-16,7.2-16,16v83.3c-9.6,5.5-16,15.9-16,27.7s6.4,22.2,16,27.7V432c0,8.8,7.2,16,16,16
        s16-7.2,16-16V218.7c9.6-5.5,16-15.9,16-27.7S328.6,168.8,319,163.3z"/>
      <path d="M431,383c0-11.8-6.4-22.2-16-27.7V80c0-8.8-7.2-16-16-16s-16,7.2-16,16v275.3c-9.6,5.5-16,15.9-16,27.7s6.4,22.2,16,27.7
        V432c0,8.8,7.2,16,16,16s16-7.2,16-16v-21.3C424.6,405.2,431,394.8,431,383z"/>
    </g>
  </symbol>

  <symbol id="cog" width="512px" height="512px" viewBox="0 0 512 512" enable-background="new 0 0 512 512">
    <g>
      <g>
        <path d="M256.9,159.9c-25.701,0-49.801,10-67.9,28.1s-28.1,42.199-28.1,67.9c0,25.699,10,49.699,28.1,67.9
          c18.1,18.1,42.301,28.1,67.9,28.1c25.699,0,49.799-10,67.9-28.1c18.1-18.102,28.1-42.201,28.1-67.9c0-25.701-10-49.701-28.1-67.9
          C306.699,169.9,282.6,159.9,256.9,159.9z M256.9,335.9c-44.301,0-80-35.9-80-80c0-44.101,35.699-80,80-80
          c44.299,0,80,35.899,80,80C336.9,300,301.199,335.9,256.9,335.9z"/>
      </g>
      <g>
        <path d="M201.787,82.828c4.458,6.628,10.119,12.406,16.775,17.069c11.012,7.715,23.957,11.793,37.438,11.793
          c13.481,0,26.428-4.078,37.439-11.793c6.654-4.663,12.316-10.441,16.773-17.068c10.326,3.228,20.334,7.378,29.927,12.411
          c-1.532,7.84-1.614,15.93-0.203,23.933c2.333,13.235,8.604,25.269,18.133,34.798c12.335,12.336,28.737,19.129,46.185,19.129
          c4.242,0,8.424-0.399,12.52-1.195c5.032,9.6,9.181,19.613,12.405,29.947c-6.622,4.46-12.396,10.121-17.054,16.776
          c-7.705,11.008-11.777,23.946-11.776,37.418c0,13.467,4.069,26.401,11.768,37.406c4.653,6.651,10.421,12.312,17.036,16.771
          c-3.232,10.34-7.387,20.354-12.428,29.957c-4.081-0.789-8.246-1.187-12.472-1.187c-17.448,0-33.85,6.795-46.183,19.131
          c-9.515,9.514-15.781,21.527-18.123,34.74c-1.415,7.988-1.343,16.065,0.176,23.895c-9.607,5.04-19.627,9.192-29.967,12.421
          c-4.461-6.61-10.121-12.374-16.771-17.022c-11-7.689-23.928-11.754-37.386-11.754c-13.457,0-26.385,4.064-37.385,11.755
          c-6.649,4.648-12.31,10.412-16.771,17.021c-10.339-3.228-20.359-7.381-29.966-12.42c1.519-7.829,1.591-15.906,0.176-23.895
          c-2.342-13.214-8.608-25.228-18.123-34.741c-12.335-12.336-28.737-19.13-46.185-19.13c-4.226,0-8.39,0.396-12.471,1.187
          c-5.04-9.602-9.195-19.618-12.428-29.958c6.615-4.46,12.383-10.119,17.036-16.771c7.699-11.004,11.769-23.939,11.769-37.408
          c0-13.471-4.072-26.41-11.777-37.418c-4.658-6.654-10.432-12.316-17.054-16.776c3.225-10.333,7.372-20.346,12.405-29.946
          c4.096,0.796,8.277,1.196,12.521,1.196c17.446,0,33.849-6.794,46.185-19.13c9.529-9.53,15.799-21.563,18.133-34.799
          c1.411-8.003,1.33-16.093-0.203-23.932C181.455,90.207,191.461,86.057,201.787,82.828 M302.074,64
          C294.971,82.529,277.027,95.69,256,95.69c-21.025,0-38.969-13.161-46.073-31.69c-20.466,4.895-39.692,12.973-57.128,23.688
          c8.068,18.122,4.682,40.104-10.182,54.97c-9.631,9.631-22.25,14.443-34.87,14.443c-6.854,0-13.706-1.419-20.083-4.255
          C76.958,170.284,68.887,189.517,64,209.984c18.51,7.112,31.652,25.049,31.652,46.062c0,21.008-13.133,38.936-31.631,46.054
          c4.898,20.466,12.977,39.692,23.693,57.128c6.36-2.821,13.197-4.232,20.031-4.232c12.621,0,25.238,4.812,34.871,14.443
          c14.841,14.841,18.238,36.781,10.215,54.889c17.438,10.71,36.664,18.783,57.131,23.673c7.127-18.479,25.046-31.596,46.037-31.596
          c20.992,0,38.91,13.115,46.037,31.596c20.468-4.89,39.693-12.964,57.132-23.675c-8.023-18.106-4.626-40.046,10.216-54.887
          c9.629-9.632,22.248-14.444,34.868-14.444c6.836,0,13.67,1.411,20.033,4.233c10.716-17.436,18.794-36.662,23.692-57.128
          c-18.498-7.118-31.63-25.048-31.63-46.054c-0.001-21.013,13.143-38.948,31.651-46.062c-4.887-20.466-12.957-39.7-23.664-57.139
          c-6.375,2.836-13.23,4.254-20.082,4.254c-12.621,0-25.238-4.811-34.871-14.442c-14.863-14.863-18.248-36.846-10.18-54.97
          C341.768,76.973,322.54,68.895,302.074,64L302.074,64z"/>
      </g>
    </g>
  </symbol>
  <symbol id="arrow-up" width="512px" height="512px" viewBox="0 0 512 512" enable-background="new 0 0 512 512">
    <polygon points="396.6,352 416,331.3 256,160 96,331.3 115.3,352 256,201.5 "/>
  </symbol>
  <symbol id="reset" width="512px" height="512px" viewBox="0 0 512 512" enable-background="new 0 0 512 512">
    <g>
      <path d="M256,388c-72.597,0-132-59.405-132-132c0-72.601,59.403-132,132-132c36.3,0,69.299,15.4,92.406,39.601L278,234h154V80
        l-51.698,51.702C348.406,99.798,304.406,80,256,80c-96.797,0-176,79.203-176,176s78.094,176,176,176
        c81.045,0,148.287-54.134,169.401-128H378.85C360.105,353.561,311.712,388,256,388z"/>
    </g>
  </symbol>
  <symbol id="arrow-left" width="512px" height="512px" viewBox="0 0 512 512" enable-background="new 0 0 512 512">
    <polygon points="352,115.4 331.3,96 160,256 331.3,416 352,396.7 201.5,256 "/>
  </symbol>  
  <symbol id="arrow-right" width="512px" height="512px" viewBox="0 0 512 512" enable-background="new 0 0 512 512">
    <polygon points="160,115.4 180.7,96 352,256 180.7,416 160,396.7 310.5,256 "/>
  </symbol> 

  <symbol id="arrow-down" width="512px" height="512px" viewBox="0 0 512 512" enable-background="new 0 0 512 512">
   <polygon points="396.6,160 416,180.7 256,352 96,180.7 115.3,160 256,310.5 "/>
  </symbol>
  <symbol id="github" width="512px" height="512px" viewBox="0 0 512 512" enable-background="new 0 0 512 512">
   <path d="M256,32C132.3,32,32,134.9,32,261.7c0,101.5,64.2,187.5,153.2,217.9c1.4,0.3,2.6,0.4,3.8,0.4c8.3,0,11.5-6.1,11.5-11.4
	c0-5.5-0.2-19.9-0.3-39.1c-8.4,1.9-15.9,2.7-22.6,2.7c-43.1,0-52.9-33.5-52.9-33.5c-10.2-26.5-24.9-33.6-24.9-33.6
	c-19.5-13.7-0.1-14.1,1.4-14.1c0.1,0,0.1,0,0.1,0c22.5,2,34.3,23.8,34.3,23.8c11.2,19.6,26.2,25.1,39.6,25.1c10.5,0,20-3.4,25.6-6
	c2-14.8,7.8-24.9,14.2-30.7c-49.7-5.8-102-25.5-102-113.5c0-25.1,8.7-45.6,23-61.6c-2.3-5.8-10-29.2,2.2-60.8c0,0,1.6-0.5,5-0.5
	c8.1,0,26.4,3.1,56.6,24.1c17.9-5.1,37-7.6,56.1-7.7c19,0.1,38.2,2.6,56.1,7.7c30.2-21,48.5-24.1,56.6-24.1c3.4,0,5,0.5,5,0.5
	c12.2,31.6,4.5,55,2.2,60.8c14.3,16.1,23,36.6,23,61.6c0,88.2-52.4,107.6-102.3,113.3c8,7.1,15.2,21.1,15.2,42.5
	c0,30.7-0.3,55.5-0.3,63c0,5.4,3.1,11.5,11.4,11.5c1.2,0,2.6-0.1,4-0.4C415.9,449.2,480,363.1,480,261.7C480,134.9,379.7,32,256,32z
	"/>
  </symbol> 
</svg>