
<?xml version="1.0" standalone="no"?><!DOCTYPE svg PUBLIC "-//W3C//DTD SVG 1.1//EN" "http://www.w3.org/Graphics/SVG/1.1/DTD/svg11.dtd"><svg t="1505892234235" class="icon" style="" viewBox="0 0 1024 1024" version="1.1" xmlns="http://www.w3.org/2000/svg" p-id="13613" xmlns:xlink="http://www.w3.org/1999/xlink" width="200" height="200"><defs><style type="text/css"></style></defs><path d="M690.688 0.576 178.56 0.576c-62.016 0-109.632 54.336-109.632 116.992L68.928 913.92c0 62.72 47.168 109.888 109.824 109.888l682.752 0c62.528 0 116.928-47.424 116.928-110.272L978.432 288.384 690.688 0.576 690.688 0.576zM894.464 284.8l-203.328 0c-0.64 0 3.072 3.712 3.072 3.072L694.208 84.544 894.464 284.8 894.464 284.8zM861.504 966.976 178.752 966.976c-31.296 0-52.992-21.76-52.992-53.056L125.76 117.568c0-31.104 22.016-60.16 52.8-60.16l458.816 0 0 230.464c0 32.32 22.144 53.76 53.76 53.76L921.6 341.632l0 571.84C921.6 945.024 892.672 966.976 861.504 966.976L861.504 966.976zM430.08 754.816 309.504 634.24l0 40.192L430.08 553.856c11.072-11.072 11.072-29.12 0-40.192-11.072-11.072-29.12-11.072-40.192 0L269.312 634.24c-11.072 11.072-11.072 29.12 0 40.192l120.576 120.576c11.072 11.072 29.12 11.072 40.192 0C441.152 783.936 441.152 765.888 430.08 754.816zM617.28 553.856l120.576 120.576L737.856 634.24l-120.576 120.576c-11.072 11.072-11.072 29.12 0 40.192 11.072 11.072 29.12 11.072 40.192 0l120.576-120.576c11.072-11.072 11.072-29.12 0-40.192l-120.576-120.576c-11.072-11.072-29.12-11.072-40.192 0C606.144 524.736 606.144 542.72 617.28 553.856z" p-id="13614"></path></svg>