
<?xml version="1.0" standalone="no"?><!DOCTYPE svg PUBLIC "-//W3C//DTD SVG 1.1//EN" "http://www.w3.org/Graphics/SVG/1.1/DTD/svg11.dtd"><svg t="1505890828216" class="icon" style="" viewBox="0 0 1024 1024" version="1.1" xmlns="http://www.w3.org/2000/svg" p-id="2479" xmlns:xlink="http://www.w3.org/1999/xlink" width="200" height="200"><defs><style type="text/css"></style></defs><path d="M959.380608 597.283584C924.0144 597.283584 895.344384 625.862848 895.344384 661.225088L895.344384 831.402816C895.344384 866.716736 866.765056 895.344384 831.402816 895.344384L661.225088 895.344384C625.911168 895.344384 597.283584 923.767808 597.283584 959.380608L597.283584 959.380608C597.283584 994.74688 626.57344 1023.416896 661.08 1023.416896L895.562816 1023.416896C966.174656 1023.416896 1023.416896 965.946624 1023.416896 895.562816L1023.416896 661.08C1023.416896 625.846208 994.993472 597.283584 959.380608 597.283584L959.380608 597.283584ZM192.01408 895.344384C156.700096 895.344384 128.072512 866.765056 128.072512 831.402816L128.072512 661.225088C128.072512 625.911168 99.649088 597.283584 64.036288 597.283584L64.036288 597.283584C28.670016 597.283584 0 626.57344 0 661.08L0 895.562816C0 966.174656 57.470208 1023.416896 127.85408 1023.416896L362.336896 1023.416896C397.570688 1023.416896 426.133312 994.993472 426.133312 959.380608L426.133312 959.380608C426.133312 924.0144 397.553984 895.344384 362.191808 895.344384L192.01408 895.344384ZM128.072512 192.01408C128.072512 156.700096 156.65184 128.072512 192.01408 128.072512L362.191808 128.072512C397.505728 128.072512 426.133312 99.649088 426.133312 64.036288L426.133312 64.036288C426.133312 28.670016 396.843456 0 362.336896 0L127.85408 0C57.24224 0 0 57.470208 0 127.85408L0 362.336896C0 397.570688 28.423424 426.133312 64.036288 426.133312L64.036288 426.133312C99.402496 426.133312 128.072512 397.553984 128.072512 362.191808L128.072512 192.01408ZM661.08 0C625.846208 0 597.283584 28.423424 597.283584 64.036288L597.283584 64.036288C597.283584 99.402496 625.862848 128.072512 661.225088 128.072512L831.402816 128.072512C866.716736 128.072512 895.344384 156.65184 895.344384 192.01408L895.344384 362.191808C895.344384 397.505728 923.767808 426.133312 959.380608 426.133312L959.380608 426.133312C994.74688 426.133312 1023.416896 396.843456 1023.416896 362.336896L1023.416896 127.85408C1023.416896 57.24224 965.946624 0 895.562816 0L661.08 0Z" p-id="2480"></path></svg>