
<?xml version="1.0" standalone="no"?><!DOCTYPE svg PUBLIC "-//W3C//DTD SVG 1.1//EN" "http://www.w3.org/Graphics/SVG/1.1/DTD/svg11.dtd"><svg t="1507517294630" class="icon" style="" viewBox="0 0 1024 1024" version="1.1" xmlns="http://www.w3.org/2000/svg" p-id="2356" xmlns:xlink="http://www.w3.org/1999/xlink" width="200" height="200"><defs><style type="text/css"></style></defs><path d="M512 0c-282.72 0-512 235.2-512 525.024 0 232 146.752 428.576 350.176 498.048 3.2 0.672 5.952 0.928 8.672 0.928 18.976 0 26.272-13.952 26.272-26.048 0-12.576-0.448-45.472-0.672-89.376-19.2 4.352-36.352 6.176-51.648 6.176-98.528 0-120.896-76.576-120.896-76.576-23.328-60.576-56.928-76.8-56.928-76.8-44.576-31.328-0.224-32.224 3.2-32.224 0.224 0 0.224 0 0.224 0 51.424 4.576 78.4 54.4 78.4 54.4 25.6 44.8 59.872 57.376 90.528 57.376 24 0 45.728-7.776 58.528-13.728 4.576-33.824 17.824-56.928 32.448-70.176-113.6-13.248-233.152-58.272-233.152-259.424 0-57.376 19.872-104.224 52.576-140.8-5.248-13.248-22.848-66.752 5.024-138.976 0 0 3.648-1.152 11.424-1.152 18.528 0 60.352 7.072 129.376 55.072 40.928-11.648 84.576-17.376 128.224-17.6 43.424 0.224 87.328 5.952 128.224 17.6 69.024-48 110.848-55.072 129.376-55.072 7.776 0 11.424 1.152 11.424 1.152 27.872 72.224 10.272 125.696 5.024 138.976 32.672 36.8 52.576 83.648 52.576 140.8 0 201.6-119.776 245.952-233.824 258.976 18.272 16.224 34.752 48.224 34.752 97.152 0 70.176-0.672 126.848-0.672 144 0 12.352 7.072 26.272 26.048 26.272 2.752 0 5.952-0.224 9.152-0.928 203.648-69.472 350.176-266.272 350.176-498.048 0-289.824-229.248-525.024-512-525.024z" p-id="2357"></path></svg>