
<?xml version="1.0" standalone="no"?><!DOCTYPE svg PUBLIC "-//W3C//DTD SVG 1.1//EN" "http://www.w3.org/Graphics/SVG/1.1/DTD/svg11.dtd"><svg t="1509335287608" class="icon" style="" viewBox="0 0 1024 1024" version="1.1" xmlns="http://www.w3.org/2000/svg" p-id="2584" xmlns:xlink="http://www.w3.org/1999/xlink" width="200" height="200"><defs><style type="text/css"></style></defs><path d="M788.9 334v88.2c0 29.8 34.3 46.6 57.8 28.2l163.1-166.2c18.9-19.3 18.8-50.2-0.3-69.3l-163-163.4c-23.5-18.1-57.6-1.3-57.6 28.4v104.8c-189.5 0-313 146-407.3 274.8-84.7 115.8-158 225-276.2 225H74.7C33.4 684.5 0 717.9 0 759.1c0 41.2 33.4 74.7 74.7 74.7h30.6c189.5 0 296.4-155.2 390.8-284C580.8 434 670.5 334 788.9 334z m-513.4 85.4l24.5-33.2c20.1-27.4 41.2-56.4 64.1-85.2-67.9-65.8-149.6-114.4-258.9-114.4H74.4C33.3 186.5 0 219.9 0 261c0 40.8 32.8 74 73.6 74.4 9.5 0.1 20 0.2 31.7 0.5 74.5 1.6 121.2 33.2 170.2 83.5z m513.4 270.8c-72.1 0-144.1-41.8-195.7-97.3-5.1 7.1-10.3 14.2-15.6 21.2-22.6 30.9-46.9 64.2-73.7 96.9 69.6 70.5 170.6 128.4 285.1 128.4V944c0 29.8 34.4 46.6 57.9 28.2L1010 805.8c18.9-19.3 18.8-50.2-0.4-69.3l-163.1-163c-23.6-18.1-57.6-1.3-57.6 28.4v88.3z" p-id="2585"></path></svg>