
<?xml version="1.0" standalone="no"?><!DOCTYPE svg PUBLIC "-//W3C//DTD SVG 1.1//EN" "http://www.w3.org/Graphics/SVG/1.1/DTD/svg11.dtd"><svg t="1509264242397" class="icon" style="" viewBox="0 0 1024 1024" version="1.1" xmlns="http://www.w3.org/2000/svg" p-id="4116" xmlns:xlink="http://www.w3.org/1999/xlink" width="200" height="200"><defs><style type="text/css"></style></defs><path d="M246.174 815.677c0 55.361 44.629 102.542 99.671 102.542l332.277 0c55.058 0 99.672-47.181 99.672-102.542l66.453-536.978L179.709 278.699 246.174 815.677zM616.651 382.851l65.218 0 0 431.213-65.218 0L616.651 382.851zM472.589 382.851l78.846 0 0 431.213-78.846 0L472.589 382.851 472.589 382.851zM342.154 382.851l65.218 0 0 431.213-65.218 0L342.154 382.851zM827.651 148.263l-215.98 0c0 0-14.877-65.217-33.234-65.217L445.532 83.046c-18.343 0-33.232 65.217-33.232 65.217L196.344 148.263c-27.535 0-49.842 24.066-49.842 51.741 0 27.688 0 52.412 0 52.412l731.02 0c0 0 0-24.725 0-52.412C877.521 172.329 855.171 148.263 827.651 148.263z" p-id="4117"></path></svg>